<mxfile host="app.diagrams.net" agent="Mozilla/5.0 (Macintosh; Intel Mac OS X 10_15_7) AppleWebKit/537.36 (KHTML, like Gecko) Chrome/135.0.0.0 Safari/537.36" version="26.2.14">
  <diagram name="Page-1" id="KjyxkzbZN0lkS2VCTlDx">
    <mxGraphModel dx="946" dy="732" grid="1" gridSize="10" guides="1" tooltips="1" connect="1" arrows="1" fold="1" page="1" pageScale="1" pageWidth="980" pageHeight="690" math="0" shadow="0">
      <root>
        <mxCell id="0" />
        <mxCell id="1" parent="0" />
        <mxCell id="A35ePlAmMtPvFaN57NNL-1" value="" style="rounded=1;whiteSpace=wrap;html=1;dashed=1;dashPattern=8 8;" parent="1" vertex="1">
          <mxGeometry x="440" y="40" width="200" height="170" as="geometry" />
        </mxCell>
        <mxCell id="A35ePlAmMtPvFaN57NNL-2" value="Routing micro&lt;span style=&quot;background-color: transparent; color: light-dark(rgb(0, 0, 0), rgb(255, 255, 255));&quot;&gt;service&lt;/span&gt;" style="text;html=1;align=center;verticalAlign=middle;whiteSpace=wrap;rounded=0;" parent="1" vertex="1">
          <mxGeometry x="480" y="10" width="120" height="30" as="geometry" />
        </mxCell>
        <mxCell id="A35ePlAmMtPvFaN57NNL-3" value="" style="rounded=1;whiteSpace=wrap;html=1;dashed=1;dashPattern=8 8;" parent="1" vertex="1">
          <mxGeometry x="440" y="260" width="200" height="170" as="geometry" />
        </mxCell>
        <mxCell id="A35ePlAmMtPvFaN57NNL-4" value="" style="rounded=1;whiteSpace=wrap;html=1;dashed=1;dashPattern=8 8;" parent="1" vertex="1">
          <mxGeometry x="440" y="480" width="200" height="170" as="geometry" />
        </mxCell>
        <mxCell id="A35ePlAmMtPvFaN57NNL-5" value="Disruption microservice" style="text;html=1;align=center;verticalAlign=middle;whiteSpace=wrap;rounded=0;" parent="1" vertex="1">
          <mxGeometry x="475" y="230" width="130" height="30" as="geometry" />
        </mxCell>
        <mxCell id="A35ePlAmMtPvFaN57NNL-6" value="Arrival times microservice" style="text;html=1;align=center;verticalAlign=middle;whiteSpace=wrap;rounded=0;" parent="1" vertex="1">
          <mxGeometry x="470" y="450" width="140" height="30" as="geometry" />
        </mxCell>
        <mxCell id="A35ePlAmMtPvFaN57NNL-7" value="&lt;font&gt;routing-deployment&lt;/font&gt;" style="aspect=fixed;sketch=0;html=1;dashed=0;whitespace=wrap;verticalLabelPosition=bottom;verticalAlign=top;fillColor=#2875E2;strokeColor=#ffffff;points=[[0.005,0.63,0],[0.1,0.2,0],[0.9,0.2,0],[0.5,0,0],[0.995,0.63,0],[0.72,0.99,0],[0.5,1,0],[0.28,0.99,0]];shape=mxgraph.kubernetes.icon2;kubernetesLabel=1;prIcon=pod;fontSize=8;" parent="1" vertex="1">
          <mxGeometry x="457.5" y="50" width="50" height="48" as="geometry" />
        </mxCell>
        <mxCell id="A35ePlAmMtPvFaN57NNL-8" value="routing-deployment" style="aspect=fixed;sketch=0;html=1;dashed=0;whitespace=wrap;verticalLabelPosition=bottom;verticalAlign=top;fillColor=#2875E2;strokeColor=#ffffff;points=[[0.005,0.63,0],[0.1,0.2,0],[0.9,0.2,0],[0.5,0,0],[0.995,0.63,0],[0.72,0.99,0],[0.5,1,0],[0.28,0.99,0]];shape=mxgraph.kubernetes.icon2;kubernetesLabel=1;prIcon=pod;fontSize=8;" parent="1" vertex="1">
          <mxGeometry x="515" y="70" width="50" height="48" as="geometry" />
        </mxCell>
        <mxCell id="A35ePlAmMtPvFaN57NNL-9" value="routing-deployment" style="aspect=fixed;sketch=0;html=1;dashed=0;whitespace=wrap;verticalLabelPosition=bottom;verticalAlign=top;fillColor=#2875E2;strokeColor=#ffffff;points=[[0.005,0.63,0],[0.1,0.2,0],[0.9,0.2,0],[0.5,0,0],[0.995,0.63,0],[0.72,0.99,0],[0.5,1,0],[0.28,0.99,0]];shape=mxgraph.kubernetes.icon2;kubernetesLabel=1;prIcon=pod;fontSize=8;" parent="1" vertex="1">
          <mxGeometry x="465" y="130" width="50" height="48" as="geometry" />
        </mxCell>
        <mxCell id="A35ePlAmMtPvFaN57NNL-10" value="routing-deployment" style="aspect=fixed;sketch=0;html=1;dashed=0;whitespace=wrap;verticalLabelPosition=bottom;verticalAlign=top;fillColor=#2875E2;strokeColor=#ffffff;points=[[0.005,0.63,0],[0.1,0.2,0],[0.9,0.2,0],[0.5,0,0],[0.995,0.63,0],[0.72,0.99,0],[0.5,1,0],[0.28,0.99,0]];shape=mxgraph.kubernetes.icon2;kubernetesLabel=1;prIcon=pod;fontSize=8;" parent="1" vertex="1">
          <mxGeometry x="572.5" y="50" width="50" height="48" as="geometry" />
        </mxCell>
        <mxCell id="A35ePlAmMtPvFaN57NNL-11" value="routing-deployment" style="aspect=fixed;sketch=0;html=1;dashed=0;whitespace=wrap;verticalLabelPosition=bottom;verticalAlign=top;fillColor=#2875E2;strokeColor=#ffffff;points=[[0.005,0.63,0],[0.1,0.2,0],[0.9,0.2,0],[0.5,0,0],[0.995,0.63,0],[0.72,0.99,0],[0.5,1,0],[0.28,0.99,0]];shape=mxgraph.kubernetes.icon2;kubernetesLabel=1;prIcon=pod;fontSize=8;" parent="1" vertex="1">
          <mxGeometry x="565" y="130" width="50" height="48" as="geometry" />
        </mxCell>
        <mxCell id="A35ePlAmMtPvFaN57NNL-12" value="disruption-deployment" style="aspect=fixed;sketch=0;html=1;dashed=0;whitespace=wrap;verticalLabelPosition=bottom;verticalAlign=top;fillColor=#2875E2;strokeColor=#ffffff;points=[[0.005,0.63,0],[0.1,0.2,0],[0.9,0.2,0],[0.5,0,0],[0.995,0.63,0],[0.72,0.99,0],[0.5,1,0],[0.28,0.99,0]];shape=mxgraph.kubernetes.icon2;kubernetesLabel=1;prIcon=pod" parent="1" vertex="1">
          <mxGeometry x="507.5" y="300" width="65" height="62.4" as="geometry" />
        </mxCell>
        <mxCell id="A35ePlAmMtPvFaN57NNL-13" value="arrival-times-deployment" style="aspect=fixed;sketch=0;html=1;dashed=0;whitespace=wrap;verticalLabelPosition=bottom;verticalAlign=top;fillColor=#2875E2;strokeColor=#ffffff;points=[[0.005,0.63,0],[0.1,0.2,0],[0.9,0.2,0],[0.5,0,0],[0.995,0.63,0],[0.72,0.99,0],[0.5,1,0],[0.28,0.99,0]];shape=mxgraph.kubernetes.icon2;kubernetesLabel=1;prIcon=pod" parent="1" vertex="1">
          <mxGeometry x="507.5" y="520" width="65" height="62.4" as="geometry" />
        </mxCell>
        <mxCell id="A35ePlAmMtPvFaN57NNL-14" value="&lt;font style=&quot;font-size: 11px;&quot;&gt;Auto-scales Pods based on CPU usage&lt;/font&gt;" style="text;html=1;align=center;verticalAlign=middle;whiteSpace=wrap;rounded=0;" parent="1" vertex="1">
          <mxGeometry x="650" y="50" width="120" height="30" as="geometry" />
        </mxCell>
        <mxCell id="A35ePlAmMtPvFaN57NNL-16" value="" style="endArrow=none;html=1;rounded=0;exitX=0.995;exitY=0.63;exitDx=0;exitDy=0;entryX=1;entryY=0.25;entryDx=0;entryDy=0;exitPerimeter=0;" parent="1" source="A35ePlAmMtPvFaN57NNL-19" target="A35ePlAmMtPvFaN57NNL-1" edge="1">
          <mxGeometry width="50" height="50" relative="1" as="geometry">
            <mxPoint x="330" y="40" as="sourcePoint" />
            <mxPoint x="330" y="330" as="targetPoint" />
          </mxGeometry>
        </mxCell>
        <mxCell id="A35ePlAmMtPvFaN57NNL-17" value="" style="rounded=1;whiteSpace=wrap;html=1;" parent="1" vertex="1">
          <mxGeometry x="775" y="185" width="190" height="110" as="geometry" />
        </mxCell>
        <mxCell id="A35ePlAmMtPvFaN57NNL-19" value="&lt;span style=&quot;text-wrap-mode: wrap;&quot;&gt;HorizontalPodAutoscaler&lt;/span&gt;" style="aspect=fixed;sketch=0;html=1;dashed=0;whitespace=wrap;verticalLabelPosition=bottom;verticalAlign=top;fillColor=#2875E2;strokeColor=#ffffff;points=[[0.005,0.63,0],[0.1,0.2,0],[0.9,0.2,0],[0.5,0,0],[0.995,0.63,0],[0.72,0.99,0],[0.5,1,0],[0.28,0.99,0]];shape=mxgraph.kubernetes.icon2;kubernetesLabel=1;prIcon=hpa" parent="1" vertex="1">
          <mxGeometry x="780" y="40" width="72.92" height="70" as="geometry" />
        </mxCell>
        <mxCell id="A35ePlAmMtPvFaN57NNL-21" value="&lt;b&gt;. . .&lt;/b&gt;" style="text;html=1;align=center;verticalAlign=middle;whiteSpace=wrap;rounded=0;" parent="1" vertex="1">
          <mxGeometry x="510" y="180" width="60" height="30" as="geometry" />
        </mxCell>
        <mxCell id="A35ePlAmMtPvFaN57NNL-24" value="ClusterIP" style="aspect=fixed;sketch=0;html=1;dashed=0;whitespace=wrap;verticalLabelPosition=bottom;verticalAlign=top;fillColor=#2875E2;strokeColor=#ffffff;points=[[0.005,0.63,0],[0.1,0.2,0],[0.9,0.2,0],[0.5,0,0],[0.995,0.63,0],[0.72,0.99,0],[0.5,1,0],[0.28,0.99,0]];shape=mxgraph.kubernetes.icon2;prIcon=svc" parent="1" vertex="1">
          <mxGeometry x="290" y="101" width="50" height="48" as="geometry" />
        </mxCell>
        <mxCell id="A35ePlAmMtPvFaN57NNL-25" value="Nginx Ingress -&amp;nbsp;&lt;div&gt;Load Balancer&lt;/div&gt;" style="aspect=fixed;sketch=0;html=1;dashed=0;whitespace=wrap;verticalLabelPosition=bottom;verticalAlign=top;fillColor=#2875E2;strokeColor=#ffffff;points=[[0.005,0.63,0],[0.1,0.2,0],[0.9,0.2,0],[0.5,0,0],[0.995,0.63,0],[0.72,0.99,0],[0.5,1,0],[0.28,0.99,0]];shape=mxgraph.kubernetes.icon2;kubernetesLabel=1;prIcon=ing" parent="1" vertex="1">
          <mxGeometry x="130" y="321" width="50" height="48" as="geometry" />
        </mxCell>
        <mxCell id="A35ePlAmMtPvFaN57NNL-26" value="ClusterIP" style="aspect=fixed;sketch=0;html=1;dashed=0;whitespace=wrap;verticalLabelPosition=bottom;verticalAlign=top;fillColor=#2875E2;strokeColor=#ffffff;points=[[0.005,0.63,0],[0.1,0.2,0],[0.9,0.2,0],[0.5,0,0],[0.995,0.63,0],[0.72,0.99,0],[0.5,1,0],[0.28,0.99,0]];shape=mxgraph.kubernetes.icon2;prIcon=svc" parent="1" vertex="1">
          <mxGeometry x="350" y="321" width="50" height="48" as="geometry" />
        </mxCell>
        <mxCell id="A35ePlAmMtPvFaN57NNL-28" value="ClusterIP" style="aspect=fixed;sketch=0;html=1;dashed=0;whitespace=wrap;verticalLabelPosition=bottom;verticalAlign=top;fillColor=#2875E2;strokeColor=#ffffff;points=[[0.005,0.63,0],[0.1,0.2,0],[0.9,0.2,0],[0.5,0,0],[0.995,0.63,0],[0.72,0.99,0],[0.5,1,0],[0.28,0.99,0]];shape=mxgraph.kubernetes.icon2;prIcon=svc" parent="1" vertex="1">
          <mxGeometry x="290" y="541" width="50" height="48" as="geometry" />
        </mxCell>
        <mxCell id="A35ePlAmMtPvFaN57NNL-29" value="" style="endArrow=classic;html=1;rounded=0;exitX=0.995;exitY=0.63;exitDx=0;exitDy=0;exitPerimeter=0;entryX=-0.005;entryY=0.535;entryDx=0;entryDy=0;entryPerimeter=0;endFill=1;" parent="1" source="A35ePlAmMtPvFaN57NNL-24" target="A35ePlAmMtPvFaN57NNL-1" edge="1">
          <mxGeometry width="50" height="50" relative="1" as="geometry">
            <mxPoint x="350" y="80" as="sourcePoint" />
            <mxPoint x="400" y="30" as="targetPoint" />
          </mxGeometry>
        </mxCell>
        <mxCell id="A35ePlAmMtPvFaN57NNL-30" value="" style="endArrow=classic;html=1;rounded=0;exitX=0.995;exitY=0.63;exitDx=0;exitDy=0;exitPerimeter=0;entryX=-0.002;entryY=0.537;entryDx=0;entryDy=0;entryPerimeter=0;endFill=1;" parent="1" source="A35ePlAmMtPvFaN57NNL-26" target="A35ePlAmMtPvFaN57NNL-3" edge="1">
          <mxGeometry width="50" height="50" relative="1" as="geometry">
            <mxPoint x="340" y="355.2" as="sourcePoint" />
            <mxPoint x="439" y="355.2" as="targetPoint" />
          </mxGeometry>
        </mxCell>
        <mxCell id="A35ePlAmMtPvFaN57NNL-31" value="" style="endArrow=classic;html=1;rounded=0;exitX=0.995;exitY=0.63;exitDx=0;exitDy=0;exitPerimeter=0;entryX=-0.001;entryY=0.535;entryDx=0;entryDy=0;entryPerimeter=0;endFill=1;" parent="1" source="A35ePlAmMtPvFaN57NNL-28" target="A35ePlAmMtPvFaN57NNL-4" edge="1">
          <mxGeometry width="50" height="50" relative="1" as="geometry">
            <mxPoint x="340" y="570" as="sourcePoint" />
            <mxPoint x="440" y="570" as="targetPoint" />
          </mxGeometry>
        </mxCell>
        <mxCell id="A35ePlAmMtPvFaN57NNL-32" value="/api/routes/" style="edgeStyle=orthogonalEdgeStyle;rounded=1;orthogonalLoop=1;jettySize=auto;html=1;entryX=0.005;entryY=0.63;entryDx=0;entryDy=0;entryPerimeter=0;strokeColor=default;curved=0;endArrow=classic;startFill=0;exitX=0.995;exitY=0.63;exitDx=0;exitDy=0;exitPerimeter=0;endFill=1;" parent="1" source="A35ePlAmMtPvFaN57NNL-25" edge="1">
          <mxGeometry relative="1" as="geometry">
            <mxPoint x="190" y="355" as="sourcePoint" />
            <mxPoint x="290.5" y="135.02" as="targetPoint" />
            <Array as="points">
              <mxPoint x="250" y="351" />
              <mxPoint x="250" y="135" />
            </Array>
          </mxGeometry>
        </mxCell>
        <mxCell id="A35ePlAmMtPvFaN57NNL-33" value="/api/disruptions/" style="edgeStyle=orthogonalEdgeStyle;rounded=0;orthogonalLoop=1;jettySize=auto;html=1;exitX=0.995;exitY=0.63;exitDx=0;exitDy=0;exitPerimeter=0;entryX=0.005;entryY=0.63;entryDx=0;entryDy=0;entryPerimeter=0;endArrow=classic;startFill=0;endFill=1;" parent="1" source="A35ePlAmMtPvFaN57NNL-25" target="A35ePlAmMtPvFaN57NNL-26" edge="1">
          <mxGeometry x="0.5278" y="11" relative="1" as="geometry">
            <Array as="points">
              <mxPoint x="300" y="351" />
              <mxPoint x="300" y="351" />
            </Array>
            <mxPoint as="offset" />
          </mxGeometry>
        </mxCell>
        <mxCell id="A35ePlAmMtPvFaN57NNL-35" value="/api/stations/" style="edgeStyle=orthogonalEdgeStyle;rounded=1;orthogonalLoop=1;jettySize=auto;html=1;exitX=0.995;exitY=0.63;exitDx=0;exitDy=0;exitPerimeter=0;entryX=0.005;entryY=0.63;entryDx=0;entryDy=0;entryPerimeter=0;curved=0;endArrow=classic;startFill=0;endFill=1;" parent="1" source="A35ePlAmMtPvFaN57NNL-25" target="A35ePlAmMtPvFaN57NNL-28" edge="1">
          <mxGeometry relative="1" as="geometry">
            <Array as="points">
              <mxPoint x="250" y="351" />
              <mxPoint x="250" y="571" />
            </Array>
          </mxGeometry>
        </mxCell>
        <mxCell id="A35ePlAmMtPvFaN57NNL-37" value="" style="endArrow=classic;html=1;rounded=0;entryX=0.005;entryY=0.63;entryDx=0;entryDy=0;entryPerimeter=0;" parent="1" target="A35ePlAmMtPvFaN57NNL-25" edge="1">
          <mxGeometry width="50" height="50" relative="1" as="geometry">
            <mxPoint x="50" y="351" as="sourcePoint" />
            <mxPoint x="60" y="312.4" as="targetPoint" />
          </mxGeometry>
        </mxCell>
        <mxCell id="A35ePlAmMtPvFaN57NNL-39" value="users" style="sketch=0;outlineConnect=0;gradientColor=none;fontColor=#000000;strokeColor=none;fillColor=#000000;dashed=0;verticalLabelPosition=bottom;verticalAlign=top;align=center;html=1;fontSize=12;fontStyle=0;aspect=fixed;shape=mxgraph.aws4.illustration_users;pointerEvents=1" parent="1" vertex="1">
          <mxGeometry x="10" y="330" width="30" height="30" as="geometry" />
        </mxCell>
        <mxCell id="A35ePlAmMtPvFaN57NNL-42" value="" style="aspect=fixed;sketch=0;html=1;dashed=0;whitespace=wrap;verticalLabelPosition=bottom;verticalAlign=top;fillColor=#2875E2;strokeColor=#ffffff;points=[[0.005,0.63,0],[0.1,0.2,0],[0.9,0.2,0],[0.5,0,0],[0.995,0.63,0],[0.72,0.99,0],[0.5,1,0],[0.28,0.99,0]];shape=mxgraph.kubernetes.icon2;kubernetesLabel=1;prIcon=pvc" parent="1" vertex="1">
          <mxGeometry x="785" y="195" width="42.92" height="41.2" as="geometry" />
        </mxCell>
        <mxCell id="A35ePlAmMtPvFaN57NNL-48" style="edgeStyle=orthogonalEdgeStyle;rounded=0;orthogonalLoop=1;jettySize=auto;html=1;exitX=0.995;exitY=0.63;exitDx=0;exitDy=0;exitPerimeter=0;entryX=0;entryY=0.5;entryDx=0;entryDy=0;" parent="1" source="A35ePlAmMtPvFaN57NNL-43" target="A35ePlAmMtPvFaN57NNL-17" edge="1">
          <mxGeometry relative="1" as="geometry" />
        </mxCell>
        <mxCell id="A35ePlAmMtPvFaN57NNL-43" value="ClusterIP" style="aspect=fixed;sketch=0;html=1;dashed=0;whitespace=wrap;verticalLabelPosition=middle;verticalAlign=middle;fillColor=#2875E2;strokeColor=#ffffff;points=[[0.005,0.63,0],[0.1,0.2,0],[0.9,0.2,0],[0.5,0,0],[0.995,0.63,0],[0.72,0.99,0],[0.5,1,0],[0.28,0.99,0]];shape=mxgraph.kubernetes.icon2;prIcon=svc;labelPosition=left;align=right;" parent="1" vertex="1">
          <mxGeometry x="685" y="210" width="50" height="48" as="geometry" />
        </mxCell>
        <mxCell id="A35ePlAmMtPvFaN57NNL-44" value="Postgres Deployment" style="aspect=fixed;sketch=0;html=1;dashed=0;whitespace=wrap;verticalLabelPosition=bottom;verticalAlign=top;fillColor=#2875E2;strokeColor=#ffffff;points=[[0.005,0.63,0],[0.1,0.2,0],[0.9,0.2,0],[0.5,0,0],[0.995,0.63,0],[0.72,0.99,0],[0.5,1,0],[0.28,0.99,0]];shape=mxgraph.kubernetes.icon2;kubernetesLabel=1;prIcon=pod;fontSize=12;" parent="1" vertex="1">
          <mxGeometry x="845" y="207" width="50" height="48" as="geometry" />
        </mxCell>
        <mxCell id="A35ePlAmMtPvFaN57NNL-45" value="Postgres Database" style="text;html=1;align=center;verticalAlign=middle;whiteSpace=wrap;rounded=0;" parent="1" vertex="1">
          <mxGeometry x="812.5" y="155" width="115" height="30" as="geometry" />
        </mxCell>
        <mxCell id="A35ePlAmMtPvFaN57NNL-46" style="edgeStyle=orthogonalEdgeStyle;rounded=1;orthogonalLoop=1;jettySize=auto;html=1;exitX=1;exitY=0.5;exitDx=0;exitDy=0;entryX=0.5;entryY=0;entryDx=0;entryDy=0;entryPerimeter=0;curved=0;" parent="1" source="A35ePlAmMtPvFaN57NNL-1" target="A35ePlAmMtPvFaN57NNL-43" edge="1">
          <mxGeometry relative="1" as="geometry" />
        </mxCell>
        <mxCell id="A35ePlAmMtPvFaN57NNL-47" style="edgeStyle=orthogonalEdgeStyle;rounded=1;orthogonalLoop=1;jettySize=auto;html=1;exitX=1;exitY=0.5;exitDx=0;exitDy=0;entryX=0.5;entryY=1;entryDx=0;entryDy=0;entryPerimeter=0;curved=0;" parent="1" source="A35ePlAmMtPvFaN57NNL-3" target="A35ePlAmMtPvFaN57NNL-43" edge="1">
          <mxGeometry relative="1" as="geometry" />
        </mxCell>
      </root>
    </mxGraphModel>
  </diagram>
</mxfile>
